<svg width="229" height="213" viewBox="0 0 229 213" fill="none" xmlns="http://www.w3.org/2000/svg">
<line x1="13.5" y1="29" x2="13.5" y2="11" stroke="black"/>
<line x1="162.5" y1="126" x2="162.5" y2="108" stroke="black"/>
<line x1="191.5" y1="80" x2="191.5" y2="62" stroke="black"/>
<line x1="220.5" y1="18" x2="220.5" stroke="black"/>
<line x1="75.5" y1="27" x2="75.5" y2="9" stroke="black"/>
<line x1="104.5" y1="112" x2="104.5" y2="94" stroke="black"/>
<line x1="133.5" y1="177" x2="133.5" y2="159" stroke="black"/>
<line x1="46.5" y1="66" x2="46.5" y2="48" stroke="black"/>
<line x1="12.5" y1="179" x2="12.5" y2="161" stroke="black"/>
<rect y="27" width="26" height="141" fill="#2ABD6B"/>
<rect width="17" height="42" transform="translate(38 11)" fill="#2ABD6B"/>
<rect width="17" height="65" transform="translate(212 9)" fill="#2ABD6B"/>
<rect width="17" height="42" transform="translate(154 119)" fill="#2ABD6B"/>
<rect width="17" height="42" transform="translate(183 77)" fill="#2ABD6B"/>
<rect width="17" height="42" transform="translate(67 20)" fill="#CB3E3E"/>
<rect width="17" height="42" transform="translate(96 53)" fill="#CB3E3E"/>
<rect width="17" height="87" transform="translate(125 74)" fill="#CB3E3E"/>
<rect y="180" width="229" height="6" rx="3" fill="#333333"/>
<path d="M29.4806 200.432C29.4806 201.328 29.2646 202.168 28.8326 202.952C28.4166 203.736 27.7526 204.368 26.8406 204.848C25.9446 205.328 24.8086 205.568 23.4326 205.568H20.6246V212H17.2646V195.248H23.4326C24.7286 195.248 25.8326 195.472 26.7446 195.92C27.6566 196.368 28.3366 196.984 28.7846 197.768C29.2486 198.552 29.4806 199.44 29.4806 200.432ZM23.2886 202.856C24.2166 202.856 24.9046 202.648 25.3526 202.232C25.8006 201.8 26.0246 201.2 26.0246 200.432C26.0246 198.8 25.1126 197.984 23.2886 197.984H20.6246V202.856H23.2886ZM40.2662 195.248V212H36.9062V195.248H40.2662ZM63.6738 195.248L57.5298 212H53.4498L47.3058 195.248H50.9058L55.5138 208.568L60.0978 195.248H63.6738ZM78.5043 212.168C76.9363 212.168 75.4963 211.8 74.1843 211.064C72.8723 210.328 71.8323 209.312 71.0643 208.016C70.2963 206.704 69.9123 205.224 69.9123 203.576C69.9123 201.944 70.2963 200.48 71.0643 199.184C71.8323 197.872 72.8723 196.848 74.1843 196.112C75.4963 195.376 76.9363 195.008 78.5043 195.008C80.0883 195.008 81.5283 195.376 82.8243 196.112C84.1363 196.848 85.1683 197.872 85.9203 199.184C86.6883 200.48 87.0723 201.944 87.0723 203.576C87.0723 205.224 86.6883 206.704 85.9203 208.016C85.1683 209.312 84.1363 210.328 82.8243 211.064C81.5123 211.8 80.0723 212.168 78.5043 212.168ZM78.5043 209.168C79.5123 209.168 80.4003 208.944 81.1683 208.496C81.9363 208.032 82.5363 207.376 82.9683 206.528C83.4003 205.68 83.6163 204.696 83.6163 203.576C83.6163 202.456 83.4003 201.48 82.9683 200.648C82.5363 199.8 81.9363 199.152 81.1683 198.704C80.4003 198.256 79.5123 198.032 78.5043 198.032C77.4963 198.032 76.6003 198.256 75.8163 198.704C75.0483 199.152 74.4483 199.8 74.0163 200.648C73.5843 201.48 73.3683 202.456 73.3683 203.576C73.3683 204.696 73.5843 205.68 74.0163 206.528C74.4483 207.376 75.0483 208.032 75.8163 208.496C76.6003 208.944 77.4963 209.168 78.5043 209.168ZM106.012 195.248V197.96H101.548V212H98.1881V197.96H93.7241V195.248H106.012ZM136.478 200.432C136.478 201.328 136.262 202.168 135.83 202.952C135.414 203.736 134.75 204.368 133.838 204.848C132.942 205.328 131.806 205.568 130.43 205.568H127.622V212H124.262V195.248H130.43C131.726 195.248 132.83 195.472 133.742 195.92C134.654 196.368 135.334 196.984 135.782 197.768C136.246 198.552 136.478 199.44 136.478 200.432ZM130.286 202.856C131.214 202.856 131.902 202.648 132.35 202.232C132.798 201.8 133.022 201.2 133.022 200.432C133.022 198.8 132.11 197.984 130.286 197.984H127.622V202.856H130.286ZM151.68 212.168C150.112 212.168 148.672 211.8 147.36 211.064C146.048 210.328 145.008 209.312 144.24 208.016C143.472 206.704 143.088 205.224 143.088 203.576C143.088 201.944 143.472 200.48 144.24 199.184C145.008 197.872 146.048 196.848 147.36 196.112C148.672 195.376 150.112 195.008 151.68 195.008C153.264 195.008 154.704 195.376 156 196.112C157.312 196.848 158.344 197.872 159.096 199.184C159.864 200.48 160.248 201.944 160.248 203.576C160.248 205.224 159.864 206.704 159.096 208.016C158.344 209.312 157.312 210.328 156 211.064C154.688 211.8 153.248 212.168 151.68 212.168ZM151.68 209.168C152.688 209.168 153.576 208.944 154.344 208.496C155.112 208.032 155.712 207.376 156.144 206.528C156.576 205.68 156.792 204.696 156.792 203.576C156.792 202.456 156.576 201.48 156.144 200.648C155.712 199.8 155.112 199.152 154.344 198.704C153.576 198.256 152.688 198.032 151.68 198.032C150.672 198.032 149.776 198.256 148.992 198.704C148.224 199.152 147.624 199.8 147.192 200.648C146.76 201.48 146.544 202.456 146.544 203.576C146.544 204.696 146.76 205.68 147.192 206.528C147.624 207.376 148.224 208.032 148.992 208.496C149.776 208.944 150.672 209.168 151.68 209.168ZM171.148 195.248V212H167.788V195.248H171.148ZM193.835 212H190.475L182.867 200.504V212H179.507V195.224H182.867L190.475 206.744V195.224H193.835V212ZM213.596 195.248V197.96H209.132V212H205.772V197.96H201.308V195.248H213.596Z" fill="black"/>
</svg>
